Normalized EMG Linear Envelopes
nRows=119
nColumns=4

endheader
time	 med_gas_r	  soleus_r	 tib_ant_r	
2.79133	  0.003363	  0.005257	  0.001673	
2.8629	  0.003454	  0.005539	  0.001698	
2.93448	  0.003540	  0.006201	  0.001677	
3.00605	  0.003731	  0.007389	  0.001649	
3.07762	  0.003907	  0.008770	  0.001615	
3.14919	  0.003902	  0.009025	  0.001607	
3.22077	  0.003794	  0.007720	  0.001625	
3.29234	  0.003618	  0.006442	  0.001637	
3.36391	  0.003371	  0.005698	  0.001619	
3.43548	  0.003166	  0.005460	  0.001602	
3.50706	  0.003056	  0.005535	  0.001603	
3.57863	  0.003011	  0.005697	  0.001614	
3.6502	  0.003080	  0.005860	  0.001642	
3.72177	  0.003307	  0.006141	  0.001695	
3.79335	  0.003516	  0.006475	  0.001758	
3.86492	  0.003562	  0.006406	  0.001776	
3.93649	  0.003448	  0.005936	  0.001740	
4.00806	  0.003268	  0.005659	  0.001730	
4.07964	  0.003174	  0.005662	  0.001782	
4.15121	  0.003267	  0.005763	  0.001861	
4.22278	  0.003487	  0.005953	  0.001929	
4.29435	  0.003608	  0.006180	  0.002022	
4.36593	  0.003580	  0.006275	  0.002102	
4.4375	  0.003549	  0.006070	  0.002165	
4.50907	  0.003621	  0.005793	  0.002207	
4.58065	  0.003903	  0.005834	  0.002217	
4.65222	  0.004380	  0.006261	  0.002221	
4.72379	  0.004719	  0.006681	  0.002196	
4.79536	  0.004105	  0.006336	  0.002036	
4.86694	  0.001032	  0.004131	  0.001615	
4.93851	 -0.006370	 -0.001246	  0.000899	
5.01008	 -0.018319	 -0.009911	 -0.000045	
5.08165	 -0.028598	 -0.017312	 -0.000615	
5.15323	 -0.017567	 -0.009107	  0.000830	
5.2248	  0.052346	  0.041878	  0.007213	
5.29637	  0.225701	  0.167785	  0.021667	
5.36794	  0.504908	  0.370112	  0.043217	
5.43952	  0.770054	  0.558782	  0.060941	
5.51109	  0.885915	  0.649776	  0.066455	
5.58266	  0.865580	  0.668824	  0.064543	
5.65423	  0.804566	  0.683937	  0.061472	
5.72581	  0.765690	  0.716357	  0.060530	
5.79738	  0.754469	  0.755444	  0.061413	
5.86895	  0.750764	  0.766541	  0.061303	
5.94052	  0.752775	  0.733567	  0.060360	
6.0121	  0.784436	  0.687338	  0.060789	
6.08367	  0.854648	  0.656691	  0.063258	
6.15524	  0.927649	  0.650391	  0.066055	
6.22681	  0.972272	  0.653329	  0.067318	
6.29839	  0.992776	  0.646745	  0.068160	
6.36996	  0.974415	  0.637981	  0.067293	
6.44153	  0.920698	  0.635245	  0.062718	
6.5131	  0.863134	  0.640372	  0.057762	
6.58468	  0.838654	  0.648427	  0.056335	
6.65625	  0.850853	  0.638954	  0.058949	
6.72782	  0.884507	  0.624171	  0.064169	
6.7994	  0.880026	  0.593783	  0.066405	
6.87097	  0.836337	  0.546093	  0.063245	
6.94254	  0.796585	  0.516654	  0.059193	
7.01411	  0.789003	  0.524096	  0.058545	
7.08569	  0.814982	  0.559176	  0.060531	
7.15726	  0.854088	  0.596311	  0.060882	
7.22883	  0.915523	  0.641578	  0.060142	
7.3004	  0.957848	  0.665869	  0.058714	
7.37198	  0.946673	  0.658369	  0.057726	
7.44355	  0.891122	  0.644906	  0.058503	
7.51512	  0.827702	  0.617820	  0.059473	
7.58669	  0.783438	  0.593935	  0.058622	
7.65827	  0.779441	  0.592132	  0.055235	
7.72984	  0.802491	  0.610162	  0.052815	
7.80141	  0.820161	  0.636052	  0.052105	
7.87298	  0.818925	  0.651149	  0.052106	
7.94456	  0.827518	  0.644411	  0.052834	
8.01613	  0.844919	  0.627282	  0.053511	
8.0877	  0.839862	  0.614110	  0.052515	
8.15927	  0.829156	  0.602687	  0.049542	
8.23085	  0.822324	  0.599940	  0.046010	
8.30242	  0.829076	  0.595360	  0.044763	
8.37399	  0.836838	  0.592642	  0.045573	
8.44556	  0.839268	  0.587216	  0.047204	
8.51714	  0.852195	  0.580950	  0.048218	
8.58871	  0.867473	  0.576688	  0.049291	
8.66028	  0.848558	  0.571275	  0.050749	
8.73185	  0.786667	  0.559414	  0.052279	
8.80343	  0.734404	  0.542270	  0.053786	
8.875	  0.733056	  0.542256	  0.054274	
8.94657	  0.760775	  0.560717	  0.054666	
9.01815	  0.787714	  0.562797	  0.054910	
9.08972	  0.793721	  0.538328	  0.053437	
9.16129	  0.798889	  0.511795	  0.050887	
9.23286	  0.803812	  0.494930	  0.048465	
9.30444	  0.786552	  0.474902	  0.046653	
9.37601	  0.762150	  0.455225	  0.046017	
9.44758	  0.736204	  0.447153	  0.045008	
9.51915	  0.713029	  0.454780	  0.043969	
9.59073	  0.698120	  0.479663	  0.043745	
9.6623	  0.689778	  0.508549	  0.044036	
9.73387	  0.700279	  0.513759	  0.044335	
9.80544	  0.714162	  0.494167	  0.044251	
9.87702	  0.734954	  0.449719	  0.043859	
9.94859	  0.762130	  0.422531	  0.043845	
10.0202	  0.804541	  0.445954	  0.045177	
10.0917	  0.880185	  0.503263	  0.047578	
10.1633	  0.948552	  0.535489	  0.049146	
10.2349	  0.935169	  0.528092	  0.049214	
10.3065	  0.840749	  0.490965	  0.047732	
10.378	  0.735037	  0.405789	  0.046710	
10.4496	  0.638878	  0.263300	  0.047141	
10.5212	  0.586588	  0.130250	  0.043910	
10.5927	  0.574793	  0.050934	  0.029923	
10.6643	  0.572995	  0.019316	  0.015491	
10.7359	  0.550182	  0.013133	  0.006761	
10.8075	  0.511023	  0.015047	  0.003154	
10.879	  0.500980	  0.018140	  0.002454	
10.9506	  0.528324	  0.020706	  0.002896	
11.0222	  0.552946	  0.022227	  0.003440	
11.0937	  0.549509	  0.022599	  0.003749	
11.1653	  0.516030	  0.021781	  0.003848	
11.2369	  0.461267	  0.019953	  0.003774	
